<svg xmlns="http://www.w3.org/2000/svg" xmlns:xlink="http://www.w3.org/1999/xlink" width="500" zoomAndPan="magnify" viewBox="0 0 375 374.999991" height="500" preserveAspectRatio="xMidYMid meet" version="1.0"><defs><clipPath id="56ca2a62e4"><path d="M 7 28.339844 L 84 28.339844 L 84 117 L 7 117 Z M 7 28.339844 " clip-rule="nonzero"/></clipPath><clipPath id="491d754e30"><path d="M 291 28.339844 L 368 28.339844 L 368 117 L 291 117 Z M 291 28.339844 " clip-rule="nonzero"/></clipPath><clipPath id="79cf4bfd23"><path d="M 285 236 L 375 236 L 375 346.339844 L 285 346.339844 Z M 285 236 " clip-rule="nonzero"/></clipPath><clipPath id="1a4c8b1bbc"><path d="M 0 236 L 90 236 L 90 346.339844 L 0 346.339844 Z M 0 236 " clip-rule="nonzero"/></clipPath></defs><path fill="#005789" d="M 88.453125 285.554688 L 88.453125 188.738281 L 8.761719 231.816406 Z M 88.453125 285.554688 " fill-opacity="1" fill-rule="evenodd"/><path fill="#0e6db8" d="M 7.660156 223.328125 L 87.074219 180.398438 L 59.191406 132.851562 Z M 7.660156 223.328125 " fill-opacity="1" fill-rule="evenodd"/><path fill="#0a727b" d="M 0 220.621094 L 54.527344 124.894531 L 0 31.890625 Z M 0 220.621094 " fill-opacity="1" fill-rule="evenodd"/><g clip-path="url(#56ca2a62e4)"><path fill="#016037" d="M 7.199219 28.367188 L 59.09375 116.878906 L 83.335938 74.324219 Z M 7.199219 28.367188 " fill-opacity="1" fill-rule="evenodd"/></g><path fill="#5f802f" d="M 88.246094 81.851562 L 63.761719 124.835938 L 88.78125 167.515625 Z M 88.246094 81.851562 " fill-opacity="1" fill-rule="evenodd"/><path fill="#8dc943" d="M 96.242188 82.117188 L 96.828125 175.125 L 177.808594 131.355469 Z M 96.242188 82.117188 " fill-opacity="1" fill-rule="evenodd"/><path fill="#f2ee2c" d="M 182.011719 138.164062 L 98.339844 183.390625 L 182.011719 233.382812 Z M 182.011719 138.164062 " fill-opacity="1" fill-rule="evenodd"/><path fill="#4e1f6f" d="M 286.546875 285.554688 L 286.546875 188.738281 L 366.238281 231.816406 Z M 286.546875 285.554688 " fill-opacity="1" fill-rule="evenodd"/><path fill="#57003d" d="M 367.34375 223.328125 L 287.929688 180.398438 L 315.808594 132.851562 Z M 367.34375 223.328125 " fill-opacity="1" fill-rule="evenodd"/><path fill="#9a015b" d="M 375 220.621094 L 320.472656 124.894531 L 375 31.890625 Z M 375 220.621094 " fill-opacity="1" fill-rule="evenodd"/><g clip-path="url(#491d754e30)"><path fill="#da0f5e" d="M 367.804688 28.367188 L 315.90625 116.878906 L 291.671875 74.324219 Z M 367.804688 28.367188 " fill-opacity="1" fill-rule="evenodd"/></g><path fill="#e60513" d="M 286.753906 81.851562 L 311.242188 124.835938 L 286.222656 167.515625 Z M 286.753906 81.851562 " fill-opacity="1" fill-rule="evenodd"/><path fill="#f74924" d="M 278.757812 82.117188 L 278.175781 175.125 L 197.195312 131.355469 Z M 278.757812 82.117188 " fill-opacity="1" fill-rule="evenodd"/><path fill="#f89426" d="M 192.988281 138.164062 L 276.664062 183.390625 L 192.988281 233.382812 Z M 192.988281 138.164062 " fill-opacity="1" fill-rule="evenodd"/><g clip-path="url(#79cf4bfd23)"><path fill="#3c1657" d="M 374.410156 346.308594 L 374.410156 236.632812 L 285.625 293.613281 Z M 374.410156 346.308594 " fill-opacity="1" fill-rule="evenodd"/></g><g clip-path="url(#1a4c8b1bbc)"><path fill="#033654" d="M 0.941406 346.308594 L 0.941406 236.632812 L 89.730469 293.613281 Z M 0.941406 346.308594 " fill-opacity="1" fill-rule="evenodd"/></g></svg>