<svg xmlns="http://www.w3.org/2000/svg" xmlns:xlink="http://www.w3.org/1999/xlink" width="500" zoomAndPan="magnify" viewBox="0 0 375 374.999991" height="500" preserveAspectRatio="xMidYMid meet" version="1.0"><defs><g/></defs><g fill="#28cb8b" fill-opacity="1"><g transform="translate(-3.749995, 337.499978)"><g><path d="M 322.484375 0.4375 C 296.972656 0.4375 284.21875 -2.429688 284.21875 -8.171875 L 275.1875 -180.59375 L 222.734375 -6.015625 C 221.585938 -2.578125 211.835938 -0.859375 193.484375 -0.859375 C 175.140625 -0.859375 165.679688 -2.4375 165.109375 -5.59375 L 110.9375 -182.3125 L 104.921875 -10.75 C 104.628906 -6.445312 99.179688 -3.503906 88.578125 -1.921875 C 77.972656 -0.347656 69.15625 0.4375 62.125 0.4375 C 55.101562 0.4375 48.296875 0.00390625 41.703125 -0.859375 C 27.941406 -2.867188 21.207031 -6.453125 21.5 -11.609375 L 31.390625 -291.09375 C 31.390625 -297.976562 48.875 -301.421875 83.84375 -301.421875 C 94.164062 -301.421875 106.78125 -300.628906 121.6875 -299.046875 C 136.59375 -297.472656 144.90625 -294.394531 146.625 -289.8125 L 194.78125 -154.359375 L 236.921875 -290.234375 C 239.503906 -297.691406 259.285156 -301.421875 296.265625 -301.421875 C 306.867188 -301.421875 319.550781 -300.628906 334.3125 -299.046875 C 349.070312 -297.472656 356.453125 -294.679688 356.453125 -290.671875 L 368.921875 -8.59375 C 368.921875 -5.445312 363.332031 -3.15625 352.15625 -1.71875 C 340.976562 -0.28125 331.085938 0.4375 322.484375 0.4375 Z M 322.484375 0.4375 "/></g></g></g></svg>